<svg width="47" height="25" fill="none" xmlns="http://www.w3.org/2000/svg"><g clip-path="url(#a)" fill="#fff"><path d="M2.747.553A2.757 2.757 0 0 0 0 3.32a2.757 2.757 0 0 0 2.747 2.768A2.757 2.757 0 0 0 5.494 3.32 2.757 2.757 0 0 0 2.747.553Zm0 4.099A1.33 1.33 0 0 1 1.425 3.32a1.33 1.33 0 0 1 1.322-1.332A1.33 1.33 0 0 1 4.069 3.32a1.33 1.33 0 0 1-1.322 1.332ZM44.255.553a2.758 2.758 0 0 0-2.747 2.696v.142a2.757 2.757 0 0 0 2.747 2.694c1.494 0 2.747-1.239 2.747-2.767A2.757 2.757 0 0 0 44.255.55v.003Zm0 4.099a1.33 1.33 0 0 1-1.322-1.332 1.33 1.33 0 0 1 1.322-1.332 1.33 1.33 0 0 1 1.322 1.332 1.33 1.33 0 0 1-1.322 1.332ZM1.418 19.817v5.185h5.145v-5.185H1.418Zm3.58 3.607H2.983v-2.029h2.015v2.03h.002ZM41.104 19.817v5.185h5.146v-5.185h-5.146Zm3.58 3.607H42.67v-2.029h2.014v2.03Z"/><path d="M44.288 19.817H42.98C41.26 11.702 34.675 5.527 26.845 4.22V2.716l14.666.03v1.291l-10.497-.022a20.946 20.946 0 0 1 5.732 3.303 21.47 21.47 0 0 1 7.544 12.499h-.002ZM19.25 2.7v1.816c-7.202 1.783-13.047 7.724-14.646 15.3H3.295A21.543 21.543 0 0 1 10.274 7.77a20.971 20.971 0 0 1 6.335-3.78L5.49 3.968V2.677l13.758.028.002-.004ZM19.25 0v7.65h7.592V0H19.25Zm6.17 6.217h-4.746V1.436h4.746v4.781Z"/></g><defs><clipPath id="a"><path fill="#fff" d="M0 0h47v25H0z"/></clipPath></defs></svg>