<svg
      className="w-[35px] h-auto"
      width="48px"
      height="48px"
      viewBox="0 0 50 48"
      xmlns="http://www.w3.org/2000/svg" style="fill:#fff;">
      <g clipPath="url(#clip0_115_133)">
        <path d="M49.8511 2.291L50 0H0L2.94197 4.30672H45.1223C44.3326 7.70771 41.9637 13.7105 34.9788 14.2078L33.1739 14.3321L34.7442 6.85524H30.2906L28.6211 14.6251L25.8009 14.8205L21.2616 15.1357L20.305 15.1979L21.2075 15.3977L25.476 16.3656L28.1247 16.9649L27.0373 22.0442L25.8099 27.2167L20.8465 48L24.4112 47.0188C30.4604 45.18 36.0944 42.2152 41.0071 38.2854C45.7134 34.405 48.335 30.6976 48.8539 27.2167C49.0247 26.1386 48.9833 25.0383 48.7321 23.9756C47.8567 20.4236 44.7974 18.035 41.8419 16.5076C47.5228 13.1333 49.5939 6.30025 49.8511 2.291ZM44.468 24.9968C44.6305 25.7315 44.6041 26.4945 44.3913 27.2167C43.7912 29.4367 41.684 32.1006 38.196 34.9821C34.7804 37.7167 30.9712 39.9372 26.8929 41.571L30.3041 27.2167L31.3149 22.9766L32.3888 17.9284L34.6449 18.439C37.068 18.9851 43.552 21.2317 44.468 24.9968Z" />
        <path d="M4.28664 6.62439L7.21959 10.9356H21.7038L20.8691 14.9004L20.8104 15.1668L19.9937 19.1627L18.7528 25.2099H18.7167L15.8379 39.6619C12.7979 36.5262 10.2505 32.9616 8.27997 29.086C7.26756 27.1173 6.51833 25.028 6.05092 22.8701H1.60187C2.09428 25.6881 3.01613 28.4168 4.33628 30.964C7.17278 36.5244 11.0664 41.4981 15.8064 45.6158L18.6491 47.9467L22.3536 29.2991L24.0096 21.3072L25.079 16.1347L25.4039 14.5896L27.0734 6.62439H4.28664Z" />
      </g>
      <defs>
        <clipPath id="clip0_115_133">
          <rect width="50" height="48" />
        </clipPath>
      </defs>
    </svg>